<svg xmlns="http://www.w3.org/2000/svg" xmlns:xlink="http://www.w3.org/1999/xlink" width="845.653" height="777.641" viewBox="0 0 845.653 777.641">
  <defs>
    <filter id="design-1" x="0" y="0" width="845.653" height="777.641" filterUnits="userSpaceOnUse">
      <feOffset dy="3" input="SourceAlpha"/>
      <feGaussianBlur stdDeviation="3" result="blur"/>
      <feFlood flood-opacity="0.161"/>
      <feComposite operator="in" in2="blur"/>
      <feComposite in="SourceGraphic"/>
    </filter>
  </defs>
  <g transform="matrix(1, 0, 0, 1, 0, 0)" filter="url(#design-1)">
    <path id="design-1-2" data-name="design-1" d="M647.76,774.772,445.376,662.388c-17.147-9.522-23.022-30.61-13.122-47.1L446.2,592.059c9.9-16.492,31.826-22.143,48.973-12.621L697.553,691.822c17.147,9.522,23.022,30.61,13.122,47.1l-13.942,23.226a36.13,36.13,0,0,1-31.08,17.246A36.78,36.78,0,0,1,647.76,774.772Zm52.267-114.14-321.4-178.473c-17.147-9.522-23.022-30.61-13.122-47.1l13.942-23.226c9.9-16.493,31.826-22.143,48.973-12.621l321.4,178.474c17.147,9.521,23.022,30.61,13.122,47.1L749,648.011a36.131,36.131,0,0,1-31.081,17.246A36.777,36.777,0,0,1,700.027,660.632ZM329.962,604.6,81.007,466.354c-17.147-9.522-23.022-30.61-13.122-47.1l13.942-23.226c9.9-16.492,31.826-22.143,48.973-12.621L379.754,521.65c17.147,9.521,23.022,30.61,13.122,47.1l-13.942,23.226a36.131,36.131,0,0,1-31.081,17.246A36.777,36.777,0,0,1,329.962,604.6Zm355.021-105.36L559.068,429.318c-17.147-9.521-23.022-30.61-13.122-47.1l13.942-23.226c9.9-16.492,31.826-22.143,48.973-12.621l125.915,69.92c17.147,9.522,23.023,30.61,13.122,47.1l-13.942,23.226a36.131,36.131,0,0,1-31.081,17.247A36.777,36.777,0,0,1,684.983,499.239Zm-400.957-69.6L261.6,417.186c-17.147-9.521-23.023-30.61-13.122-47.1l13.942-23.226c9.9-16.492,31.826-22.143,48.973-12.621l22.423,12.451c17.147,9.522,23.022,30.61,13.122,47.1L333,417.016a36.131,36.131,0,0,1-31.081,17.247A36.779,36.779,0,0,1,284.026,429.638Zm495.66-38.632L496.233,233.6c-17.147-9.522-23.022-30.61-13.122-47.1l13.942-23.226c9.9-16.493,31.826-22.143,48.973-12.621l283.453,157.4c17.147,9.522,23.022,30.61,13.122,47.1l-13.942,23.226a36.131,36.131,0,0,1-31.081,17.247A36.779,36.779,0,0,1,779.686,391.006Zm-303.1-13.889L278.8,267.287c-17.147-9.522-23.022-30.61-13.122-47.1l13.942-23.226c9.9-16.493,31.826-22.143,48.973-12.621L526.38,294.167c17.147,9.522,23.022,30.61,13.122,47.1L525.56,364.5a36.131,36.131,0,0,1-31.081,17.247A36.776,36.776,0,0,1,476.588,377.117ZM166.693,364.825,44.8,297.139c-17.147-9.521-23.023-30.61-13.122-47.1l13.942-23.226c9.9-16.492,31.826-22.143,48.973-12.621l121.89,67.686c17.147,9.522,23.022,30.61,13.122,47.1L215.666,352.2a36.131,36.131,0,0,1-31.081,17.246A36.777,36.777,0,0,1,166.693,364.825ZM194.65,213.969,37.688,126.807C20.541,117.285,14.665,96.2,24.566,79.7L38.507,56.478c9.9-16.492,31.826-22.143,48.973-12.621l156.962,87.162c17.147,9.521,23.022,30.61,13.122,47.1l-13.942,23.226a36.131,36.131,0,0,1-31.081,17.246A36.777,36.777,0,0,1,194.65,213.969Zm223.969-26.18L273.731,107.332c-17.147-9.522-23.023-30.61-13.122-47.1L274.55,37c9.9-16.493,31.826-22.143,48.973-12.621l144.888,80.457c17.147,9.522,23.022,30.61,13.122,47.1l-13.942,23.226a36.131,36.131,0,0,1-31.081,17.247A36.778,36.778,0,0,1,418.619,187.788Z" transform="translate(-10.76 -13.76)" fill="#efa00b" opacity="0.5"/>
  </g>
</svg>
